<?xml version="1.0" encoding="UTF-8"?><svg id="Layer_2" xmlns="http://www.w3.org/2000/svg" viewBox="0 0 722.73 287.91"><defs><style>.cls-1{fill:#feffbc;}.cls-2{fill:#333;}.cls-3{fill:#efbfd7;}.cls-4{fill:#a4f1b8;}</style></defs><g id="rasta"><path class="cls-2" d="M629.29,48.75c-4.61,12.53-9.18,24.94-13.76,37.36-.14,0-.29-.02-.43-.02-4.58-12.36-9.17-24.72-13.79-37.2h-112.6c-3.65,11.94-7.31,23.93-10.97,35.92-1.59-2.77-10.52-32.71-11.52-35.94-.73-.04-44.53-.12-65.62-.12h-2.66c.03-.21,.05-.42,.07-.61,.54-2.61,.82-5.31,.82-8.07,0-22.1-17.98-40.07-40.1-40.07-8.68,0-16.72,2.77-23.29,7.47-6.57-4.7-14.61-7.47-23.29-7.47-22.11,0-40.1,17.97-40.1,40.07,0,2.48,.23,4.91,.66,7.26h-1.96c-2.51,0-5.02,.02-7.53,0-6.5-.07-12.94,.48-19.28,1.94-.63,.15-1.33,.64-1.84-.32-.11-.2-.71-.17-1.09-.19-.64-.03-1.29-.01-1.93-.01-46.37,0-92.74,.01-139.11-.03-2.22,0-4.46-.38-6.67-.74-5.6-.93-11.24-1.3-16.88-1-10.41,.56-20.41,2.86-29.86,7.41-15.47,7.43-27.01,18.91-35.18,33.88-5.49,10.09-8.71,20.9-10.28,32.25-.97,6.95-1.31,13.93-.98,20.92,.41,8.91,1.77,17.69,4.41,26.25,2.53,8.22,6.07,15.94,10.81,23.11,.16,.25,.28,.53,.57,1.09H2.29c.2,2.21,.34,4.17,.56,6.12,.57,5.09,1.25,10.17,1.75,15.26,.93,9.44,2.78,18.63,6.69,27.33,3.23,7.2,7.43,13.75,12.77,19.59,9.22,10.08,20.45,17.02,33.25,21.56,9.51,3.38,19.3,5.31,29.36,5.81,4.68,.23,9.39,.5,14.06,.25,12.39-.67,24.41-3.06,35.78-8.31,9.53-4.4,17.83-10.43,24.91-18.14,6.89-7.51,12.02-16.15,15.55-25.7,1.2-3.24,2.08-6.6,3.1-9.91,.17-.54,.32-1.09,.53-1.77h61.22c.19-.22,.24-.27,.28-.31,.04-.05,.09-.1,.11-.16,.03-.12,.05-.25,.06-.38,.02-.19,.02-.38,.02-.57,.02-19.47,.03-38.94,.05-58.41,0-.06,.04-.12,.19-.46,.25,.69,.46,1.18,.61,1.68,3.26,11.7,8.52,22.38,16.17,31.87,6.86,8.51,15.15,15.31,24.87,20.31,8.6,4.43,17.77,7.01,27.4,7.93,7.98,.76,15.89,.33,23.76-1.2,1.19-.23,2.42-.31,3.63-.31,26.82-.02,82.24-.01,83.34-.01v-38.48c.16-.03,.31-.07,.47-.1,1.74,4.12,12.22,34.04,13.8,38.44h81.55c9.42-26.45,18.85-52.95,28.43-79.86,.95,2.15,20.41,48.17,21.67,51.11,.4,.92,.49,1.69,.02,2.7-6.68,14.65-39.24,86.85-39.57,87.63h93.27c.75-1.73,100.37-234.99,100.78-235.82v-.78c-.77,0-92.5-.05-93.44-.05ZM91.8,145.66c-3.12,0-5.64-4.17-5.64-9.31s2.52-9.3,5.64-9.3,5.63,4.16,5.63,9.3-2.52,9.31-5.63,9.31Zm239.22,.05c-3.18,0-5.75-4.18-5.75-9.34s2.57-9.33,5.75-9.33,5.76,4.18,5.76,9.33-2.58,9.34-5.76,9.34Z"/><path class="cls-4" d="M156.93,73.76c0-.68-.07-1.37-.11-2.08h-36.53v5.88c0,1.93,.04,3.86-.01,5.79-.04,1.88,.21,3.78-.21,5.92-.45-.57-.74-.9-.99-1.26-3.67-5.27-8.38-9.37-14.02-12.42-6.37-3.44-13.22-5.2-20.44-5.73-11.2-.83-21.77,1.29-31.55,6.85-11.02,6.25-18.72,15.5-23.81,27-3.94,8.92-5.81,18.31-6.27,28.03-.48,10.24,.57,20.28,3.67,30.06,3.53,11.13,9.36,20.86,18.35,28.46,11.93,10.07,25.8,14.06,41.26,12.45,13.67-1.42,24.89-7.34,33.05-18.6,.19-.27,.48-.47,.88-.84,.04,.51,.09,.76,.09,1.01,0,6.1,.07,12.21-.03,18.31-.07,3.93-.6,7.81-1.84,11.57-2.17,6.55-6.16,11.49-12.62,14.25-2.93,1.25-6,1.9-9.15,2.16-6.12,.5-12.08-.15-17.73-2.68-5.47-2.46-9.47-6.33-11.43-12.11-.13-.36-.34-.68-.5-1.01H28.08c-.11,.24-.19,.35-.2,.47-.02,.19-.01,.38,.02,.57,1.09,8.14,3.65,15.75,8.16,22.65,6.64,10.18,15.97,16.93,27.18,21.26,7.92,3.05,16.17,4.59,24.62,5.16,9.37,.63,18.65,.2,27.77-2.13,20.22-5.19,33.94-17.52,40.71-37.35,.37-1.07,.57-2.26,.57-3.39,.03-49.42,.02-98.83,.02-148.25Zm-41.34,81.2c-4.65,8.33-12.17,12.69-21.69,13.37-14.04,.99-25.32-7.81-29.02-21.24-.5-1.79-.85-3.63-1.1-5.47-.25-1.84-.28-3.71-.35-4.8,.06-5.69,.69-10.52,2.65-15.07,4.68-10.9,12.98-16.97,24.85-17.34,12.03-.36,21.12,5.04,26.01,16.06,5.13,11.54,4.87,23.33-1.35,34.49Z"/><path class="cls-3" d="M399.39,121.1c0-1.13-.17-2.32-.55-3.38-5.23-14.84-10.52-29.66-15.8-44.48-.19-.54-.43-1.05-.64-1.57h-22.84v17.31c-.72-.34-1.08-.76-1.39-1.2-3.31-4.61-7.41-8.36-12.28-11.26-6.82-4.05-14.24-6.1-22.13-6.66-11.62-.82-22.53,1.5-32.53,7.53-11.71,7.05-19.42,17.39-24.18,30.04-3.37,8.94-4.78,18.25-4.87,27.76-.08,9.38,1.08,18.59,4.07,27.51,3.64,10.89,9.41,20.43,18.32,27.81,13.92,11.53,29.91,14.88,47.41,11.14,10.96-2.34,19.94-8.03,26.56-17.21,.2-.28,.47-.51,1.06-1.13v17.77h39.82v-2.29c0-25.9,0-51.79-.03-77.69Zm-68.13,47.3c-15.73,0-28.49-14.32-28.49-32s12.76-32,28.49-32,28.49,14.33,28.49,32-12.76,32-28.49,32Z"/><path class="cls-4" d="M606.84,262.7h-42.78c.34-.86,.59-1.57,.9-2.26,9.12-20.19,18.25-40.39,27.38-60.58,.19-.41,.33-.85,.57-1.22,.83-1.27,.6-2.45,.03-3.8-17.05-40.28-34.06-80.57-51.08-120.87-.29-.7-.55-1.41-.9-2.3h44.44c9.89,26.69,19.82,53.47,29.74,80.22,.2-.02,.26-.02,.32-.03,.06-.02,.13-.04,.16-.09,.12-.22,.25-.45,.34-.68,9.74-26.39,19.47-52.78,29.2-79.17,.02-.06,.07-.1,.2-.27h42.95c-27.19,63.76-54.31,127.36-81.47,191.04Z"/><path class="cls-1" d="M505.61,71.6h10.49c.29,.62,.57,1.19,.82,1.77,5.27,12.48,10.53,24.97,15.84,37.44,.54,1.27,.6,2.38,.13,3.68-10.1,28.3-20.17,56.62-30.25,84.93-.19,.54-.43,1.07-.68,1.7h-49.27c-15.34-43.12-30.68-86.23-46.08-129.51h42.74c9.3,30.48,18.61,61.04,27.93,91.59,.13,.01,.26,.02,.39,.04,9.31-30.52,18.61-61.03,27.95-91.64Z"/><path class="cls-1" d="M179.8,201.08V71.63h39.77v20.6l.36,.13c.41-.53,.83-1.05,1.23-1.59,5.75-7.75,12.9-13.74,21.92-17.38,5-2.02,10.21-3.02,15.58-3.26,.49-.02,.99,.07,1.58,.12,.35,2.17,.2,3.95-1.28,5.76-8.25,10.14-13.54,21.75-16.61,34.42-.12,.5-.24,1-.37,1.5-.05,.18-.13,.36-.25,.66-.87,.18-1.81,.36-2.74,.57-1.06,.24-2.13,.47-3.18,.76-7.64,2.14-12.49,7.09-14.68,14.67-1.08,3.73-1.52,7.55-1.52,11.42-.01,16.13-.01,32.26-.02,48.39,0,3.53,0,7.07,0,10.6v1.85c-1.51,.48-36.11,.67-39.79,.23Z"/><ellipse class="cls-3" cx="312.16" cy="40.07" rx="17.1" ry="17.07"/><ellipse class="cls-3" cx="358.74" cy="40.07" rx="17.1" ry="17.07"/></g></svg>